<mxfile host="65bd71144e">
    <diagram id="rLTFirSggqk5s6QhS6uG" name="Page-1">
        <mxGraphModel dx="486" dy="464" grid="1" gridSize="10" guides="1" tooltips="1" connect="1" arrows="1" fold="1" page="1" pageScale="1" pageWidth="827" pageHeight="1169" math="0" shadow="0">
            <root>
                <mxCell id="0"/>
                <mxCell id="1" parent="0"/>
                <mxCell id="7" value="" style="endArrow=block;dashed=1;endFill=0;endSize=12;html=1;fontFamily=Alegreya Sans;fontSource=https%3A%2F%2Ffonts.googleapis.com%2Fcss%3Ffamily%3DAlegreya%2BSans;" parent="1" source="59" target="40" edge="1">
                    <mxGeometry width="160" relative="1" as="geometry">
                        <mxPoint x="238.01999999999998" y="238" as="sourcePoint"/>
                        <mxPoint x="251.5" y="170" as="targetPoint"/>
                    </mxGeometry>
                </mxCell>
                <mxCell id="8" value="" style="endArrow=block;dashed=1;endFill=0;endSize=12;html=1;fontFamily=Alegreya Sans;fontSource=https%3A%2F%2Ffonts.googleapis.com%2Fcss%3Ffamily%3DAlegreya%2BSans;" parent="1" source="49" target="40" edge="1">
                    <mxGeometry width="160" relative="1" as="geometry">
                        <mxPoint x="425" y="240" as="sourcePoint"/>
                        <mxPoint x="306.5" y="170" as="targetPoint"/>
                    </mxGeometry>
                </mxCell>
                <mxCell id="9" value="" style="endArrow=none;shadow=0;strokeWidth=1;rounded=0;endFill=0;elbow=vertical;entryX=1;entryY=0.5;entryDx=0;entryDy=0;exitX=0.75;exitY=0;exitDx=0;exitDy=0;" parent="1" source="49" target="45" edge="1">
                    <mxGeometry x="0.5" y="41" relative="1" as="geometry">
                        <mxPoint x="452.5" y="240" as="sourcePoint"/>
                        <mxPoint x="440" y="145" as="targetPoint"/>
                        <mxPoint x="-40" y="32" as="offset"/>
                        <Array as="points">
                            <mxPoint x="540" y="135"/>
                        </Array>
                    </mxGeometry>
                </mxCell>
                <mxCell id="11" value="1" style="resizable=0;align=right;verticalAlign=bottom;labelBackgroundColor=none;fontSize=12;fontFamily=Alegreya;spacingBottom=2;" parent="9" connectable="0" vertex="1">
                    <mxGeometry x="1" relative="1" as="geometry">
                        <mxPoint x="10" y="-5" as="offset"/>
                    </mxGeometry>
                </mxCell>
                <mxCell id="12" value="next&amp;nbsp;&lt;span style=&quot;text-align: left;&quot;&gt;▸&lt;/span&gt;" style="text;html=1;resizable=0;points=[];;align=center;verticalAlign=middle;labelBackgroundColor=none;rounded=0;shadow=0;strokeWidth=1;fontSize=12;fontFamily=Alegreya;rotation=-90;" parent="9" vertex="1" connectable="0">
                    <mxGeometry relative="1" as="geometry">
                        <mxPoint x="13" y="24" as="offset"/>
                    </mxGeometry>
                </mxCell>
                <mxCell id="18" value="" style="endArrow=none;shadow=0;strokeWidth=1;rounded=0;endFill=0;elbow=vertical;entryX=0.003;entryY=0.12;entryDx=0;entryDy=0;entryPerimeter=0;" parent="1" source="32" target="46" edge="1">
                    <mxGeometry x="0.5" y="41" relative="1" as="geometry">
                        <mxPoint x="170" y="145.0000000000001" as="sourcePoint"/>
                        <mxPoint x="224" y="145" as="targetPoint"/>
                        <mxPoint x="-40" y="32" as="offset"/>
                    </mxGeometry>
                </mxCell>
                <mxCell id="20" value="1" style="resizable=0;align=right;verticalAlign=bottom;labelBackgroundColor=none;fontSize=12;fontFamily=Alegreya;spacingBottom=2;" parent="18" connectable="0" vertex="1">
                    <mxGeometry x="1" relative="1" as="geometry">
                        <mxPoint x="-11" y="1" as="offset"/>
                    </mxGeometry>
                </mxCell>
                <mxCell id="21" value="head&amp;nbsp;&lt;span style=&quot;text-align: left;&quot;&gt;▸&lt;/span&gt;" style="text;html=1;resizable=0;points=[];;align=center;verticalAlign=middle;labelBackgroundColor=none;rounded=0;shadow=0;strokeWidth=1;fontSize=12;fontFamily=Alegreya;" parent="18" vertex="1" connectable="0">
                    <mxGeometry relative="1" as="geometry">
                        <mxPoint y="-10" as="offset"/>
                    </mxGeometry>
                </mxCell>
                <mxCell id="22" value="" style="endArrow=none;shadow=0;strokeWidth=1;rounded=0;endFill=0;elbow=vertical;entryX=0.5;entryY=0;entryDx=0;entryDy=0;" parent="1" source="49" target="26" edge="1">
                    <mxGeometry x="0.5" y="41" relative="1" as="geometry">
                        <mxPoint x="425" y="290" as="sourcePoint"/>
                        <mxPoint x="360.04999999999995" y="340" as="targetPoint"/>
                        <mxPoint x="-40" y="32" as="offset"/>
                    </mxGeometry>
                </mxCell>
                <mxCell id="23" value="1" style="resizable=0;align=right;verticalAlign=bottom;labelBackgroundColor=none;fontSize=12;fontFamily=Alegreya;spacingBottom=2;" parent="22" connectable="0" vertex="1">
                    <mxGeometry x="1" relative="1" as="geometry">
                        <mxPoint as="offset"/>
                    </mxGeometry>
                </mxCell>
                <mxCell id="24" value="decay&amp;nbsp;&lt;span style=&quot;text-align: left;&quot;&gt;▸&lt;/span&gt;" style="text;html=1;resizable=0;points=[];;align=center;verticalAlign=middle;labelBackgroundColor=none;rounded=0;shadow=0;strokeWidth=1;fontSize=12;fontFamily=Alegreya;rotation=90;" parent="22" vertex="1" connectable="0">
                    <mxGeometry relative="1" as="geometry">
                        <mxPoint x="10" y="-5" as="offset"/>
                    </mxGeometry>
                </mxCell>
                <mxCell id="26" value="Decay" style="swimlane;fontStyle=1;align=center;verticalAlign=top;childLayout=stackLayout;horizontal=1;startSize=26;horizontalStack=0;resizeParent=1;resizeParentMax=0;resizeLast=0;collapsible=1;marginBottom=0;fontFamily=Alegreya Sans;fontSize=11;fontSource=https%3A%2F%2Ffonts.googleapis.com%2Fcss%3Ffamily%3DAlegreya%2BSans;" parent="1" vertex="1">
                    <mxGeometry x="300" y="470" width="350" height="142" as="geometry">
                        <mxRectangle x="850" y="510" width="80" height="30" as="alternateBounds"/>
                    </mxGeometry>
                </mxCell>
                <mxCell id="27" value="decayTime: double" style="text;strokeColor=none;fillColor=none;align=left;verticalAlign=middle;spacingLeft=3;spacingRight=4;overflow=hidden;rotatable=0;points=[[0,0.5],[1,0.5]];portConstraint=eastwest;fontFamily=Alegreya;fontSize=11;fontStyle=0;imageWidth=24;imageHeight=24;comic=0;imageAspect=0;" parent="26" vertex="1">
                    <mxGeometry y="26" width="350" height="18" as="geometry"/>
                </mxCell>
                <mxCell id="28" value="energy: double" style="text;strokeColor=none;fillColor=none;align=left;verticalAlign=middle;spacingLeft=3;spacingRight=4;overflow=hidden;rotatable=0;points=[[0,0.5],[1,0.5]];portConstraint=eastwest;fontFamily=Alegreya;fontSize=11;fontStyle=0;html=1;imageWidth=24;imageHeight=24;comic=0;imageAspect=0;" parent="26" vertex="1">
                    <mxGeometry y="44" width="350" height="18" as="geometry"/>
                </mxCell>
                <mxCell id="38" value="gammaQuantumCount: int" style="text;strokeColor=none;fillColor=none;align=left;verticalAlign=middle;spacingLeft=3;spacingRight=4;overflow=hidden;rotatable=0;points=[[0,0.5],[1,0.5]];portConstraint=eastwest;fontFamily=Alegreya;fontSize=11;fontStyle=0;imageWidth=24;imageHeight=24;comic=0;imageAspect=0;" parent="26" vertex="1">
                    <mxGeometry y="62" width="350" height="18" as="geometry"/>
                </mxCell>
                <mxCell id="29" value="" style="line;strokeWidth=1;fillColor=none;align=left;verticalAlign=middle;spacingTop=-1;spacingLeft=3;spacingRight=3;rotatable=0;labelPosition=right;points=[];portConstraint=eastwest;strokeColor=inherit;fontFamily=Alegreya;fontSize=11;" parent="26" vertex="1">
                    <mxGeometry y="80" width="350" height="8" as="geometry"/>
                </mxCell>
                <mxCell id="30" value="Decay(decayTime: double, energy: double, gammaQuantumCount: double)" style="text;strokeColor=none;fillColor=none;align=left;verticalAlign=middle;spacingLeft=3;spacingRight=4;overflow=hidden;rotatable=0;points=[[0,0.5],[1,0.5]];portConstraint=eastwest;fontFamily=Alegreya;fontSize=11;fontStyle=0;imageWidth=24;imageHeight=24;comic=0;imageAspect=0;" parent="26" vertex="1">
                    <mxGeometry y="88" width="350" height="18" as="geometry"/>
                </mxCell>
                <mxCell id="64" value="getDecayTime(): double" style="text;strokeColor=none;fillColor=none;align=left;verticalAlign=middle;spacingLeft=3;spacingRight=4;overflow=hidden;rotatable=0;points=[[0,0.5],[1,0.5]];portConstraint=eastwest;fontFamily=Alegreya;fontSize=11;fontStyle=0;imageWidth=24;imageHeight=24;comic=0;imageAspect=0;" vertex="1" parent="26">
                    <mxGeometry y="106" width="350" height="18" as="geometry"/>
                </mxCell>
                <mxCell id="31" value="getEnergy(): double" style="text;strokeColor=none;fillColor=none;align=left;verticalAlign=middle;spacingLeft=3;spacingRight=4;overflow=hidden;rotatable=0;points=[[0,0.5],[1,0.5]];portConstraint=eastwest;fontFamily=Alegreya;fontSize=11;fontStyle=0;imageWidth=24;imageHeight=24;comic=0;imageAspect=0;" parent="26" vertex="1">
                    <mxGeometry y="124" width="350" height="18" as="geometry"/>
                </mxCell>
                <mxCell id="32" value="MeasurementSeries" style="swimlane;fontStyle=1;align=center;verticalAlign=top;childLayout=stackLayout;horizontal=1;startSize=26;horizontalStack=0;resizeParent=1;resizeParentMax=0;resizeLast=0;collapsible=1;marginBottom=0;fontFamily=Alegreya Sans;fontSize=11;fontSource=https%3A%2F%2Ffonts.googleapis.com%2Fcss%3Ffamily%3DAlegreya%2BSans;" parent="1" vertex="1">
                    <mxGeometry x="14" y="100" width="160" height="88" as="geometry">
                        <mxRectangle x="850" y="510" width="80" height="30" as="alternateBounds"/>
                    </mxGeometry>
                </mxCell>
                <mxCell id="57" value="- head: Node" style="text;strokeColor=none;fillColor=none;align=left;verticalAlign=middle;spacingLeft=3;spacingRight=4;overflow=hidden;rotatable=0;points=[[0,0.5],[1,0.5]];portConstraint=eastwest;fontFamily=Alegreya;fontSize=11;fontStyle=0;imageWidth=24;imageHeight=24;comic=0;imageAspect=0;" parent="32" vertex="1">
                    <mxGeometry y="26" width="160" height="18" as="geometry"/>
                </mxCell>
                <mxCell id="35" value="" style="line;strokeWidth=1;fillColor=none;align=left;verticalAlign=middle;spacingTop=-1;spacingLeft=3;spacingRight=3;rotatable=0;labelPosition=right;points=[];portConstraint=eastwest;strokeColor=inherit;fontFamily=Alegreya;fontSize=11;" parent="32" vertex="1">
                    <mxGeometry y="44" width="160" height="8" as="geometry"/>
                </mxCell>
                <mxCell id="36" value="getMaxEnergy(): double" style="text;strokeColor=none;fillColor=none;align=left;verticalAlign=middle;spacingLeft=3;spacingRight=4;overflow=hidden;rotatable=0;points=[[0,0.5],[1,0.5]];portConstraint=eastwest;fontFamily=Alegreya;fontSize=11;fontStyle=0;imageWidth=24;imageHeight=24;comic=0;imageAspect=0;" parent="32" vertex="1">
                    <mxGeometry y="52" width="160" height="18" as="geometry"/>
                </mxCell>
                <mxCell id="37" value="getAverageDecayTime(): double" style="text;strokeColor=none;fillColor=none;align=left;verticalAlign=middle;spacingLeft=3;spacingRight=4;overflow=hidden;rotatable=0;points=[[0,0.5],[1,0.5]];portConstraint=eastwest;fontFamily=Alegreya;fontSize=11;fontStyle=0;imageWidth=24;imageHeight=24;comic=0;imageAspect=0;" parent="32" vertex="1">
                    <mxGeometry y="70" width="160" height="18" as="geometry"/>
                </mxCell>
                <mxCell id="40" value="«interface»&lt;br&gt;&lt;b&gt;Node&lt;/b&gt;" style="swimlane;fontStyle=0;align=center;verticalAlign=top;childLayout=stackLayout;horizontal=1;startSize=40;horizontalStack=0;resizeParent=1;resizeParentMax=0;resizeLast=0;collapsible=1;marginBottom=0;fontFamily=Alegreya Sans;fontSize=11;fontSource=https%3A%2F%2Ffonts.googleapis.com%2Fcss%3Ffamily%3DAlegreya%2BSans;html=1;" parent="1" vertex="1">
                    <mxGeometry x="250" y="78" width="200" height="102" as="geometry">
                        <mxRectangle x="850" y="510" width="80" height="30" as="alternateBounds"/>
                    </mxGeometry>
                </mxCell>
                <mxCell id="44" value="" style="line;strokeWidth=1;fillColor=none;align=left;verticalAlign=middle;spacingTop=-1;spacingLeft=3;spacingRight=3;rotatable=0;labelPosition=right;points=[];portConstraint=eastwest;strokeColor=inherit;fontFamily=Alegreya;fontSize=11;" parent="40" vertex="1">
                    <mxGeometry y="40" width="200" height="8" as="geometry"/>
                </mxCell>
                <mxCell id="45" value="getMaxEnergy(energy: double): double" style="text;strokeColor=none;fillColor=none;align=left;verticalAlign=middle;spacingLeft=3;spacingRight=4;overflow=hidden;rotatable=0;points=[[0,0.5],[1,0.5]];portConstraint=eastwest;fontFamily=Alegreya;fontSize=11;fontStyle=0;imageWidth=24;imageHeight=24;comic=0;imageAspect=0;" parent="40" vertex="1">
                    <mxGeometry y="48" width="200" height="18" as="geometry"/>
                </mxCell>
                <mxCell id="46" value="getTotalDecayTime(): double" style="text;strokeColor=none;fillColor=none;align=left;verticalAlign=middle;spacingLeft=3;spacingRight=4;overflow=hidden;rotatable=0;points=[[0,0.5],[1,0.5]];portConstraint=eastwest;fontFamily=Alegreya;fontSize=11;fontStyle=0;imageWidth=24;imageHeight=24;comic=0;imageAspect=0;" parent="40" vertex="1">
                    <mxGeometry y="66" width="200" height="18" as="geometry"/>
                </mxCell>
                <mxCell id="47" value="getLength(): int" style="text;strokeColor=none;fillColor=none;align=left;verticalAlign=middle;spacingLeft=3;spacingRight=4;overflow=hidden;rotatable=0;points=[[0,0.5],[1,0.5]];portConstraint=eastwest;fontFamily=Alegreya;fontSize=11;fontStyle=0;imageWidth=24;imageHeight=24;comic=0;imageAspect=0;" parent="40" vertex="1">
                    <mxGeometry y="84" width="200" height="18" as="geometry"/>
                </mxCell>
                <mxCell id="49" value="&lt;b&gt;InnerNode&lt;/b&gt;" style="swimlane;fontStyle=0;align=center;verticalAlign=top;childLayout=stackLayout;horizontal=1;startSize=30;horizontalStack=0;resizeParent=1;resizeParentMax=0;resizeLast=0;collapsible=1;marginBottom=0;fontFamily=Alegreya Sans;fontSize=11;fontSource=https%3A%2F%2Ffonts.googleapis.com%2Fcss%3Ffamily%3DAlegreya%2BSans;html=1;" parent="1" vertex="1">
                    <mxGeometry x="390" y="250" width="200" height="146" as="geometry">
                        <mxRectangle x="850" y="510" width="80" height="30" as="alternateBounds"/>
                    </mxGeometry>
                </mxCell>
                <mxCell id="55" value="- next: Node" style="text;strokeColor=none;fillColor=none;align=left;verticalAlign=middle;spacingLeft=3;spacingRight=4;overflow=hidden;rotatable=0;points=[[0,0.5],[1,0.5]];portConstraint=eastwest;fontFamily=Alegreya;fontSize=11;fontStyle=0;imageWidth=24;imageHeight=24;comic=0;imageAspect=0;" parent="49" vertex="1">
                    <mxGeometry y="30" width="200" height="18" as="geometry"/>
                </mxCell>
                <mxCell id="56" value="- decay: Decay" style="text;strokeColor=none;fillColor=none;align=left;verticalAlign=middle;spacingLeft=3;spacingRight=4;overflow=hidden;rotatable=0;points=[[0,0.5],[1,0.5]];portConstraint=eastwest;fontFamily=Alegreya;fontSize=11;fontStyle=0;imageWidth=24;imageHeight=24;comic=0;imageAspect=0;" parent="49" vertex="1">
                    <mxGeometry y="48" width="200" height="18" as="geometry"/>
                </mxCell>
                <mxCell id="50" value="" style="line;strokeWidth=1;fillColor=none;align=left;verticalAlign=middle;spacingTop=-1;spacingLeft=3;spacingRight=3;rotatable=0;labelPosition=right;points=[];portConstraint=eastwest;strokeColor=inherit;fontFamily=Alegreya;fontSize=11;" parent="49" vertex="1">
                    <mxGeometry y="66" width="200" height="8" as="geometry"/>
                </mxCell>
                <mxCell id="51" value="InnerNode(next: Node, decay: Decay)" style="text;strokeColor=none;fillColor=none;align=left;verticalAlign=middle;spacingLeft=3;spacingRight=4;overflow=hidden;rotatable=0;points=[[0,0.5],[1,0.5]];portConstraint=eastwest;fontFamily=Alegreya;fontSize=11;fontStyle=0;imageWidth=24;imageHeight=24;comic=0;imageAspect=0;" parent="49" vertex="1">
                    <mxGeometry y="74" width="200" height="18" as="geometry"/>
                </mxCell>
                <mxCell id="54" value="getMaxEnergy(energy: double): double" style="text;strokeColor=none;fillColor=none;align=left;verticalAlign=middle;spacingLeft=3;spacingRight=4;overflow=hidden;rotatable=0;points=[[0,0.5],[1,0.5]];portConstraint=eastwest;fontFamily=Alegreya;fontSize=11;fontStyle=0;imageWidth=24;imageHeight=24;comic=0;imageAspect=0;" parent="49" vertex="1">
                    <mxGeometry y="92" width="200" height="18" as="geometry"/>
                </mxCell>
                <mxCell id="52" value="getTotalDecayTime(): double" style="text;strokeColor=none;fillColor=none;align=left;verticalAlign=middle;spacingLeft=3;spacingRight=4;overflow=hidden;rotatable=0;points=[[0,0.5],[1,0.5]];portConstraint=eastwest;fontFamily=Alegreya;fontSize=11;fontStyle=0;imageWidth=24;imageHeight=24;comic=0;imageAspect=0;" parent="49" vertex="1">
                    <mxGeometry y="110" width="200" height="18" as="geometry"/>
                </mxCell>
                <mxCell id="53" value="getLength(): int" style="text;strokeColor=none;fillColor=none;align=left;verticalAlign=middle;spacingLeft=3;spacingRight=4;overflow=hidden;rotatable=0;points=[[0,0.5],[1,0.5]];portConstraint=eastwest;fontFamily=Alegreya;fontSize=11;fontStyle=0;imageWidth=24;imageHeight=24;comic=0;imageAspect=0;" parent="49" vertex="1">
                    <mxGeometry y="128" width="200" height="18" as="geometry"/>
                </mxCell>
                <mxCell id="59" value="&lt;span style=&quot;font-weight: 700;&quot;&gt;LeafNode&lt;/span&gt;" style="swimlane;fontStyle=0;align=center;verticalAlign=top;childLayout=stackLayout;horizontal=1;startSize=30;horizontalStack=0;resizeParent=1;resizeParentMax=0;resizeLast=0;collapsible=1;marginBottom=0;fontFamily=Alegreya Sans;fontSize=11;fontSource=https%3A%2F%2Ffonts.googleapis.com%2Fcss%3Ffamily%3DAlegreya%2BSans;html=1;" parent="1" vertex="1">
                    <mxGeometry x="130" y="250" width="200" height="92" as="geometry">
                        <mxRectangle x="850" y="510" width="80" height="30" as="alternateBounds"/>
                    </mxGeometry>
                </mxCell>
                <mxCell id="60" value="" style="line;strokeWidth=1;fillColor=none;align=left;verticalAlign=middle;spacingTop=-1;spacingLeft=3;spacingRight=3;rotatable=0;labelPosition=right;points=[];portConstraint=eastwest;strokeColor=inherit;fontFamily=Alegreya;fontSize=11;" parent="59" vertex="1">
                    <mxGeometry y="30" width="200" height="8" as="geometry"/>
                </mxCell>
                <mxCell id="61" value="getMaxEnergy(energy: double): double" style="text;strokeColor=none;fillColor=none;align=left;verticalAlign=middle;spacingLeft=3;spacingRight=4;overflow=hidden;rotatable=0;points=[[0,0.5],[1,0.5]];portConstraint=eastwest;fontFamily=Alegreya;fontSize=11;fontStyle=0;imageWidth=24;imageHeight=24;comic=0;imageAspect=0;" parent="59" vertex="1">
                    <mxGeometry y="38" width="200" height="18" as="geometry"/>
                </mxCell>
                <mxCell id="62" value="getTotalDecayTime(): double" style="text;strokeColor=none;fillColor=none;align=left;verticalAlign=middle;spacingLeft=3;spacingRight=4;overflow=hidden;rotatable=0;points=[[0,0.5],[1,0.5]];portConstraint=eastwest;fontFamily=Alegreya;fontSize=11;fontStyle=0;imageWidth=24;imageHeight=24;comic=0;imageAspect=0;" parent="59" vertex="1">
                    <mxGeometry y="56" width="200" height="18" as="geometry"/>
                </mxCell>
                <mxCell id="63" value="getLength(): int" style="text;strokeColor=none;fillColor=none;align=left;verticalAlign=middle;spacingLeft=3;spacingRight=4;overflow=hidden;rotatable=0;points=[[0,0.5],[1,0.5]];portConstraint=eastwest;fontFamily=Alegreya;fontSize=11;fontStyle=0;imageWidth=24;imageHeight=24;comic=0;imageAspect=0;" parent="59" vertex="1">
                    <mxGeometry y="74" width="200" height="18" as="geometry"/>
                </mxCell>
            </root>
        </mxGraphModel>
    </diagram>
</mxfile>
